<?xml version="1.0" encoding="UTF-8" standalone="no"?>
<svg
   xmlns="http://www.w3.org/2000/svg"
   width="600"
   height="600"
   viewBox="0 0 600 600"
   version="1.1">
  <circle
     cx="300"
     cy="300"
     r="250"
     fill="white" />
  <!-- Onda blu superiore -->
  <path
     d="M 300,150 C 400,150 450,200 500,250 C 450,220 400,190 350,190 C 300,190 250,220 200,250 C 250,200 250,150 300,150 Z"
     fill="#00A8FF" />
  <path
     d="M 350,190 C 400,190 450,220 500,250 C 450,230 400,210 350,210 C 300,210 250,230 200,250 C 250,220 300,190 350,190 Z"
     fill="#00A8FF" />
  <path
     d="M 350,210 C 400,210 450,230 500,250 C 450,240 400,230 350,230 C 300,230 250,240 200,250 C 250,230 300,210 350,210 Z"
     fill="#00A8FF" />
  <!-- Onda gialla inferiore -->
  <path
     d="M 300,450 C 400,450 450,400 500,350 C 450,380 400,410 350,410 C 300,410 250,380 200,350 C 250,400 250,450 300,450 Z"
     fill="#FFE100" />
  <path
     d="M 350,410 C 400,410 450,380 500,350 C 450,370 400,390 350,390 C 300,390 250,370 200,350 C 250,380 300,410 350,410 Z"
     fill="#FFE100" />
  <path
     d="M 350,390 C 400,390 450,370 500,350 C 450,360 400,370 350,370 C 300,370 250,360 200,350 C 250,370 300,390 350,390 Z"
     fill="#FFE100" />
  <!-- Testo "Lisprocoin" -->
  <text
     x="300"
     y="550"
     font-family="Arial, sans-serif"
     font-size="80"
     font-weight="bold"
     text-anchor="middle"
     fill="#00A8FF">Lisprocoin</text>
</svg>
